<?xml version="1.0" encoding="UTF-8" standalone="no"?>
<!-- Created with Inkscape (http://www.inkscape.org/) -->

<svg
   xmlns:dc="http://purl.org/dc/elements/1.1/"
   xmlns:cc="http://creativecommons.org/ns#"
   xmlns:rdf="http://www.w3.org/1999/02/22-rdf-syntax-ns#"
   xmlns:svg="http://www.w3.org/2000/svg"
   xmlns="http://www.w3.org/2000/svg"
   xmlns:sodipodi="http://sodipodi.sourceforge.net/DTD/sodipodi-0.dtd"
   xmlns:inkscape="http://www.inkscape.org/namespaces/inkscape"
   width="512"
   height="512"
   id="svg5449"
   version="1.1"
   inkscape:version="0.48.4 r9939"
   sodipodi:docname="select-back.svg">
  <defs
     id="defs5451" />
  <sodipodi:namedview
     id="base"
     pagecolor="#ffffff"
     bordercolor="#666666"
     borderopacity="1.0"
     inkscape:pageopacity="0.0"
     inkscape:pageshadow="2"
     inkscape:zoom="0.6875"
     inkscape:cx="140.44844"
     inkscape:cy="219.63725"
     inkscape:current-layer="layer1"
     showgrid="true"
     inkscape:document-units="px"
     inkscape:grid-bbox="true"
     inkscape:window-width="1920"
     inkscape:window-height="1028"
     inkscape:window-x="-8"
     inkscape:window-y="-8"
     inkscape:window-maximized="1">
    <inkscape:grid
       type="xygrid"
       id="grid5457"
       empspacing="2"
       visible="true"
       enabled="true"
       snapvisiblegridlinesonly="true"
       spacingx="16px"
       spacingy="16px"
       dotted="false"
       empcolor="#0000ff"
       empopacity="0.25098039"
       color="#00bfff"
       opacity="0.1254902" />
  </sodipodi:namedview>
  <metadata
     id="metadata5454">
    <rdf:RDF>
      <cc:Work
         rdf:about="">
        <dc:format>image/svg+xml</dc:format>
        <dc:type
           rdf:resource="http://purl.org/dc/dcmitype/StillImage" />
        <dc:title></dc:title>
      </cc:Work>
    </rdf:RDF>
  </metadata>
  <g
     id="layer1"
     inkscape:label="Layer 1"
     inkscape:groupmode="layer"
     transform="translate(0,448)">
    <path
       style="font-size:medium;font-style:normal;font-variant:normal;font-weight:normal;font-stretch:normal;text-indent:0;text-align:start;text-decoration:none;line-height:normal;letter-spacing:normal;word-spacing:normal;text-transform:none;direction:ltr;block-progression:tb;writing-mode:lr-tb;text-anchor:start;baseline-shift:baseline;color:#000000;fill:#000000;fill-opacity:1;stroke:none;stroke-width:30.71537018;marker:none;visibility:visible;display:inline;overflow:visible;enable-background:accumulate;font-family:Sans;-inkscape-font-specification:Sans"
       d="m 32.65625,-415.34375 0,15.34375 0,416 0,15.34375 15.34375,0 416,0 15.34375,0 0,-15.34375 0,-416 0,-15.34375 -15.34375,0 -416,0 -15.34375,0 z m 30.6875,30.6875 385.3125,0 0,385.3125 -385.3125,0 0,-385.3125 z"
       id="rect5978"
       inkscape:connector-curvature="0" />
    <path
       style="font-size:medium;font-style:normal;font-variant:normal;font-weight:normal;font-stretch:normal;text-indent:0;text-align:start;text-decoration:none;line-height:normal;letter-spacing:normal;word-spacing:normal;text-transform:none;direction:ltr;block-progression:tb;writing-mode:lr-tb;text-anchor:start;baseline-shift:baseline;color:#000000;fill:#000000;fill-opacity:1;stroke:none;stroke-width:32;marker:none;visibility:visible;display:inline;overflow:visible;enable-background:accumulate;font-family:Sans;-inkscape-font-specification:Sans"
       d="m 191.28125,-404.75 -30.5625,9.5 c 27.1603,87.52932 45.01552,109.33772 63.6875,190.8125 l 0.125,0.53125 0.15625,0.5 c 9.29886,30.99957 30.36508,72.3121 50.65625,113.9375 20.29117,41.625396 39.65749,83.7429186 45,108.8125 l 31.3125,-6.6875 C 344.71389,-19.920625 324.53479,-61.63126 304.125,-103.5 c -20.3399,-41.72536 -41.04276,-83.40963 -48.71875,-108.8125 -19.31279,-83.90341 -37.7952,-107.58462 -64.125,-192.4375 z"
       id="path5991"
       inkscape:connector-curvature="0" />
    <path
       style="font-size:medium;font-style:normal;font-variant:normal;font-weight:normal;font-stretch:normal;text-indent:0;text-align:start;text-decoration:none;line-height:normal;letter-spacing:normal;word-spacing:normal;text-transform:none;direction:ltr;block-progression:tb;writing-mode:lr-tb;text-anchor:start;baseline-shift:baseline;color:#000000;fill:#000000;fill-opacity:1;stroke:none;stroke-width:32;marker:none;visibility:visible;display:inline;overflow:visible;enable-background:accumulate;font-family:Sans;-inkscape-font-specification:Sans"
       d="m 463.78125,-352 c -16.44539,0.23329 -31.88967,4.2742 -45.875,9.125 l -0.125,0.0312 -0.0937,0.0625 c -32.11866,11.693 -52.41782,37.90591 -76.21875,58.75 l -0.0312,0 -0.0312,0.0312 c -18.86582,16.6411 -53.76592,35.83413 -78.25,45.96875 l -0.375,0.15625 -0.34375,0.1875 c -7.28577,3.45016 -21.97978,5.71506 -34.15625,18.78125 l 23.4375,21.8125 c 2.97295,-3.19018 11.7335,-5.78768 23.6875,-11.375 0.0249,-0.0116 0.0376,-0.0196 0.0625,-0.0312 0.20446,-0.0847 0.45086,-0.19571 0.65625,-0.28125 27.29706,-11.36818 62.6666,-30.26449 86.40625,-51.1875 0.0176,-0.0154 0.0449,-0.0158 0.0625,-0.0312 26.29903,-23.03919 45.34382,-45.18736 66.03125,-52.71875 12.11251,-4.18403 24.28962,-7.1209 35.59375,-7.28125 l -0.4375,-32 z"
       id="path6030"
       inkscape:connector-curvature="0" />
  </g>
</svg>
