<?xml version="1.0" encoding="UTF-8" standalone="no"?>
<!-- Created with Inkscape (http://www.inkscape.org/) -->

<svg
   xmlns:dc="http://purl.org/dc/elements/1.1/"
   xmlns:cc="http://creativecommons.org/ns#"
   xmlns:rdf="http://www.w3.org/1999/02/22-rdf-syntax-ns#"
   xmlns:svg="http://www.w3.org/2000/svg"
   xmlns="http://www.w3.org/2000/svg"
   xmlns:sodipodi="http://sodipodi.sourceforge.net/DTD/sodipodi-0.dtd"
   xmlns:inkscape="http://www.inkscape.org/namespaces/inkscape"
   width="512"
   height="512"
   id="svg5449"
   version="1.1"
   inkscape:version="0.48.4 r9939"
   sodipodi:docname="select-front.svg">
  <defs
     id="defs5451" />
  <sodipodi:namedview
     id="base"
     pagecolor="#ffffff"
     bordercolor="#666666"
     borderopacity="1.0"
     inkscape:pageopacity="0.0"
     inkscape:pageshadow="2"
     inkscape:zoom="0.6875"
     inkscape:cx="140.44844"
     inkscape:cy="219.63725"
     inkscape:current-layer="layer1"
     showgrid="true"
     inkscape:document-units="px"
     inkscape:grid-bbox="true"
     inkscape:window-width="1920"
     inkscape:window-height="1028"
     inkscape:window-x="-8"
     inkscape:window-y="-8"
     inkscape:window-maximized="1">
    <inkscape:grid
       type="xygrid"
       id="grid5457"
       empspacing="2"
       visible="true"
       enabled="true"
       snapvisiblegridlinesonly="true"
       spacingx="16px"
       spacingy="16px"
       dotted="false"
       empcolor="#0000ff"
       empopacity="0.25098039"
       color="#00bfff"
       opacity="0.1254902" />
  </sodipodi:namedview>
  <metadata
     id="metadata5454">
    <rdf:RDF>
      <cc:Work
         rdf:about="">
        <dc:format>image/svg+xml</dc:format>
        <dc:type
           rdf:resource="http://purl.org/dc/dcmitype/StillImage" />
        <dc:title />
      </cc:Work>
    </rdf:RDF>
  </metadata>
  <g
     id="layer1"
     inkscape:label="Layer 1"
     inkscape:groupmode="layer"
     transform="translate(0,448)">
    <path
       style="font-size:medium;font-style:normal;font-variant:normal;font-weight:normal;font-stretch:normal;text-indent:0;text-align:start;text-decoration:none;line-height:normal;letter-spacing:normal;word-spacing:normal;text-transform:none;direction:ltr;block-progression:tb;writing-mode:lr-tb;text-anchor:start;baseline-shift:baseline;color:#000000;fill:#000000;fill-opacity:1;stroke:none;stroke-width:30.71537018;marker:none;visibility:visible;display:inline;overflow:visible;enable-background:accumulate;font-family:Sans;-inkscape-font-specification:Sans"
       d="M 32.65625 32.65625 L 32.65625 48 L 32.65625 464 L 32.65625 479.34375 L 48 479.34375 L 464 479.34375 L 479.34375 479.34375 L 479.34375 464 L 479.34375 48 L 479.34375 32.65625 L 464 32.65625 L 48 32.65625 L 32.65625 32.65625 z M 63.34375 63.34375 L 164.0625 63.34375 C 189.36371 142.18091 206.51276 165.48463 224.40625 243.5625 L 224.53125 244.09375 L 224.6875 244.59375 C 233.98636 275.59332 255.05258 316.90585 275.34375 358.53125 C 291.2092 391.0777 306.46428 423.89238 314.9375 448.65625 L 63.34375 448.65625 L 63.34375 63.34375 z M 197.75 63.34375 L 448.65625 63.34375 L 448.65625 97.25 C 437.81095 98.84521 427.52116 101.79008 417.90625 105.125 L 417.78125 105.15625 L 417.6875 105.21875 C 385.56884 116.91175 365.26968 143.12466 341.46875 163.96875 L 341.4375 163.96875 L 341.40625 164 C 322.54043 180.6411 287.64033 199.83413 263.15625 209.96875 L 262.78125 210.125 L 262.4375 210.3125 C 259.43256 211.73548 255.14145 212.95179 250.3125 214.8125 C 234.38889 153.36404 218.50897 125.80413 197.75 63.34375 z M 448.65625 129.75 L 448.65625 448.65625 L 348.65625 448.65625 C 339.92788 418.15087 322.10801 381.39043 304.125 344.5 C 286.47534 308.2934 268.57267 272.12745 259.125 246.59375 C 263.32868 244.73994 268.86544 242.58844 275.40625 239.53125 C 275.43115 239.51965 275.44385 239.5116 275.46875 239.5 C 275.67321 239.4153 275.91961 239.30429 276.125 239.21875 C 303.42206 227.85057 338.7916 208.95426 362.53125 188.03125 C 362.54885 188.01585 362.57615 188.0154 362.59375 188 C 388.89278 164.96081 407.93757 142.81264 428.625 135.28125 C 435.33827 132.96228 442.06292 131.04237 448.65625 129.75 z "
       transform="translate(0,-448)"
       id="rect5978" />
  </g>
</svg>
